<svg xmlns="http://www.w3.org/2000/svg" viewBox="0 0 24 24">
  <rect width="24" height="24" rx="5" fill="#f8fafc" />
  
  <g transform="translate(4, 4) scale(0.66)">
    <path 
      d="M17.8 19.2 16 11l3.5-3.5C21 6 21.5 4 21 3c-1-.5-3 0-4.5 1.5L13 8 4.8 6.2c-.5-.1-.9.2-1.1.6L3 8l5.5 4L5 15.5 2.8 15l-1 1 3 3 3 3 1-1-.5-2.2 3.5-3.5 4 5.5c.3.5.7.4 1 .2z" 
      fill="none" 
      stroke="#020617" 
      stroke-width="2.5" 
      stroke-linecap="round" 
      stroke-linejoin="round"
    />
  </g>
</svg>
